<svg height="512" viewBox="0 0 64 64" width="512" xmlns="http://www.w3.org/2000/svg"><g id="Gamer-Game-Computer-Player-Video_Game" data-name="Gamer-Game-Computer-Player-Video Game"><path d="m24 26v3a3 3 0 0 1 -6 0v-3z" fill="#ffc477"/><path d="m24 26v2.32a6.958 6.958 0 0 1 -6 0v-2.32z" fill="#ffb655"/><path d="m27.44 16a2.009 2.009 0 0 1 -1.9-1.37l-.54-1.63-1.87 1.4a7.982 7.982 0 0 1 -4.8 1.6h-4.33v4a7 7 0 0 0 14 0v-4z" fill="#ffc477"/><path d="m35 37.87v8.13h-28v-8.13a6 6 0 0 1 3.52-5.47l7.48-3.4a3 3 0 0 0 6 0l3 1.36 4.48 2.04a6 6 0 0 1 3.52 5.47z" fill="#3d9ae2"/><path d="m32 16v4a1 1 0 0 1 -1 1h-3v-6h3a1 1 0 0 1 1 1z" fill="#ee8700"/><path d="m5 50h54v11h-54z" fill="#a97c50"/><path d="m61 46v4h-2-54-2v-4h4 6 16 6 4 6z" fill="#a97c50"/><path d="m28 14v2h-.56a2.009 2.009 0 0 1 -1.9-1.37l-.54-1.63-1.87 1.4a7.982 7.982 0 0 1 -4.8 1.6h-4.33v-2a7 7 0 0 1 14 0z" fill="#57565c"/><rect fill="#acabb1" height="20" rx="2" width="30" x="27" y="20"/><path d="m14 20v1h-3a1 1 0 0 1 -1-1v-4a1 1 0 0 1 1-1h3z" fill="#ee8700"/><path d="m39 34h6v12h-6z" fill="#d8d7da"/><path d="m5 50h54v2h-54z" fill="#8b5e3c"/><path d="m61 45h-15v-4h9a3.009 3.009 0 0 0 3-3v-16a3.009 3.009 0 0 0 -3-3h-22v-3a2.006 2.006 0 0 0 -2-2v-2a10 10 0 0 0 -20 0v2a2.006 2.006 0 0 0 -2 2v4a2.006 2.006 0 0 0 2 2h2.26a8.012 8.012 0 0 0 2.08 3.66 7.74 7.74 0 0 0 1.66 1.26v1.44l-6.9 3.13a7.032 7.032 0 0 0 -4.1 6.38v7.13h-3a1 1 0 0 0 -1 1v4a1 1 0 0 0 1 1h1v10a1 1 0 0 0 1 1h54a1 1 0 0 0 1-1v-10h1a1 1 0 0 0 1-1v-4a1 1 0 0 0 -1-1zm-6-24a1 1 0 0 1 1 1v16a1 1 0 0 1 -1 1h-9v-5a1 1 0 0 0 -1-1h-6a1 1 0 0 0 -1 1v5h-9a1 1 0 0 1 -1-1v-16a1 1 0 0 1 1-1zm-11 14v10h-4v-10zm-6 6v4h-2v-4zm-4 0v4h-4v-4zm-3-22h-2v-3h2zm-18 1h-2v-4h2zm0-6v-2a8 8 0 0 1 16 0v2a8 8 0 0 0 -16 0zm14 0v.88a1 1 0 0 1 -.51-.56l-.54-1.64a1.008 1.008 0 0 0 -1.55-.48l-1.87 1.4a7.042 7.042 0 0 1 -4.2 1.4h-3.33v-1a6 6 0 0 1 12 0zm-10.24 10.24a5.928 5.928 0 0 1 -1.76-4.24v-3h3.33a9.032 9.032 0 0 0 5.4-1.8l.76-.57.11.32a2.975 2.975 0 0 0 2.4 2.01v2.82a2.986 2.986 0 0 0 -1 2.22v1.29a5.976 5.976 0 0 1 -9.24.95zm9.24 1.98v2.59l-1-.45v-1.44a8.55 8.55 0 0 0 1-.7zm-3 1.52v1.26a2 2 0 0 1 -4 0v-1.26a7.822 7.822 0 0 0 4 0zm-15 10.13a5.018 5.018 0 0 1 2.93-4.56l6.35-2.88a3.985 3.985 0 0 0 7.45 0l1.27.57v7a3.01 3.01 0 0 0 2 2.82v4.18h-14v-6h-2v6h-4zm50 22.13h-52v-9h52zm2-11h-56v-2h56z"/><path d="m23 18h2v2h-2z"/><path d="m17 18h2v2h-2z"/></g></svg>