<svg height="512" viewBox="0 0 60 59" width="512" xmlns="http://www.w3.org/2000/svg"><g id="Page-1" fill="none" fill-rule="evenodd"><g id="011---Weights" fill-rule="nonzero"><path id="Shape" d="m59 18h-58c-.55228475 0-1-.4477153-1-1s.44771525-1 1-1h58c.5522847 0 1 .4477153 1 1s-.4477153 1-1 1z" fill="#393f4a"/><path id="Shape" d="m17 2.5v55.5h-5v-55.5c0-1.38071187 1.1192881-2.5 2.5-2.5s2.5 1.11928813 2.5 2.5z" fill="#95a5a5"/><path id="Shape" d="m48 2.5v40.5h-4.76c-.0696394-.1974597-.149753-.3910676-.24-.58v-39.92c0-1.38071187 1.1192881-2.5 2.5-2.5s2.5 1.11928813 2.5 2.5z" fill="#95a5a5"/><path id="Shape" d="m12 9.5v15c0 1.3807119-1.1192881 2.5-2.5 2.5-1.38071187 0-2.5-1.1192881-2.5-2.5v-15c0-1.38071187 1.11928813-2.5 2.5-2.5 1.3807119 0 2.5 1.11928813 2.5 2.5z" fill="#c03a2b"/><path id="Shape" d="m7 13.5v7c0 1.3807119-1.11928813 2.5-2.5 2.5s-2.5-1.1192881-2.5-2.5v-7c0-1.3807119 1.11928813-2.5 2.5-2.5s2.5 1.1192881 2.5 2.5z" fill="#e64c3c"/><path id="Shape" d="m58 13.5v7c0 1.3807119-1.1192881 2.5-2.5 2.5s-2.5-1.1192881-2.5-2.5v-7c0-1.3807119 1.1192881-2.5 2.5-2.5s2.5 1.1192881 2.5 2.5z" fill="#e64c3c"/><path id="Shape" d="m53 9.5v15c0 1.3807119-1.1192881 2.5-2.5 2.5s-2.5-1.1192881-2.5-2.5v-15c0-1.38071187 1.1192881-2.5 2.5-2.5s2.5 1.11928813 2.5 2.5z" fill="#c03a2b"/><path id="Shape" d="m22.259 59h-15.259c-.55228475 0-1-.4477153-1-1s.44771525-1 1-1h15.259c.5522847 0 1 .4477153 1 1s-.4477153 1-1 1z" fill="#393f4a"/><path id="Shape" d="m59 55.5c.0021341.6636932-.2605727 1.3008186-.729877 1.770123-.4693044.4693043-1.1064298.7320111-1.770123.729877l-23.5.0000129c3.7223896.0047415 7.1934613-1.8776184 9.22-5.0000129h14.28c1.3807119 0 2.5 1.1192881 2.5 2.5z" fill="#802f34"/><path id="Shape" d="m56 50.5c.0021341.6636932-.2605727 1.3008186-.729877 1.770123-.4693044.4693043-1.1064298.7320111-1.770123.729877l-11.28.0000129c.9813976-1.4979097 1.5758216-3.2158982 1.73-5.0000129h9.55c1.3807119 0 2.5 1.1192881 2.5 2.5z" fill="#c03a2b"/><path id="Shape" d="m53 45.5c.001185.6634943-.2614303 1.3002463-.73 1.77-.3553458.3537927-.8078443.593965-1.3.69h-.01c-.12.02-2.03.03-2.96.04h-4.05c.1551129-1.6991954-.0879856-3.4111566-.71-5h7.26c1.3807119 0 2.5 1.1192881 2.5 2.5z" fill="#802f34"/><path id="Shape" d="m43.24 43c-.0696394-.1974597-.149753-.3910676-.24-.58-2.0910647-4.5728489-7.0136621-7.1489378-11.962796-6.2603587-4.9491339.888579-8.6681315 5.0162-9.0378324 10.0308606-.3697008 5.0146605 2.7037686 9.6430494 7.4690831 11.2478165 4.7653144 1.6047672 10.012476-.2215663 12.7515453-4.4383184.9813976-1.4978968 1.5758216-3.2158853 1.73-5 .1551129-1.6991954-.0879856-3.4111566-.71-5zm-8.12 6.12c-.8577.8587681-2.1483463 1.1161198-3.2698278.6519956-1.1214815-.4641241-1.8528121-1.5582691-1.8528121-2.7719956s.7313306-2.3078715 1.8528121-2.7719956c1.1214815-.4641242 2.4121278-.2067725 3.2698278.6519956 1.1698135 1.1712702 1.1698135 3.0687298 0 4.24z" fill="#547580"/><path id="Shape" d="m33 59c-5.965438-.0006402-11.0246502-4.3832329-11.8759071-10.2876222-.851257-5.9043892 2.7639406-11.5376026 8.4862521-13.2233076s11.8140558 1.0879927 14.299655 6.5109298c.1025951.2165167.194048.4381396.274.664.6675053 1.7233096.9282725 3.577426.762 5.418-.5523113 6.1845073-5.7368814 10.9229248-11.946 10.918zm0-21.991c-4.7879604-.0028527-8.9061204 3.3885171-9.8215007 8.088161-.9153803 4.6996438 1.6289023 9.388701 6.0679218 11.1830474s9.5270543.1904346 12.1345789-3.8252084c.8900781-1.3607664 1.4304014-2.92025 1.573-4.54.1390262-1.5447266-.0813932-3.1006689-.644-4.546-.0623937-.1762258-.1338216-.3491215-.214-.518-1.6186753-3.5672121-5.1787338-5.8536964-9.096-5.842z" fill="#e64c3c"/><g fill="#fff"><path id="Shape" d="m32.989 55c-2.3662937-.0019994-4.610079-1.0523738-6.127221-2.8683116-1.5171419-1.8159378-2.1516847-4.2107685-1.732779-6.5396884.0985828-.5434482.6190518-.9040828 1.1625-.8055s.9040828.6190518.8055 1.1625c-.3453723 1.929707.2753665 3.9062962 1.6619562 5.2920885 1.3865898 1.3857923 3.3635358 2.0053939 5.2930438 1.6589115.5434482-.0985828 1.0639172.2620518 1.1625.8055s-.2620518 1.0639172-.8055 1.1625c-.4684059.0865751-.9436621.1307538-1.42.132z"/><path id="Shape" d="m39.888 49.23c-.0603571.0000451-.1205972-.0053096-.18-.016-.541-.1011826-.8985424-.6205128-.8-1.162.3462467-1.9308848-.2749051-3.9089469-1.6628223-5.2952688s-3.3666924-2.0051984-5.2971777-1.6567312c-.3515493.0637719-.7104162-.0648498-.941419-.3374145s-.2990466-.6476634-.1785-.984.4113697-.5828136.762919-.6465855c2.5757514-.4635369 5.2152396.3635817 7.065829 2.214171 1.8505893 1.8505894 2.6777079 4.4900776 2.214171 7.065829-.0877203.47393-.5010202.8178561-.983.818z"/></g></g></g></svg>