<?xml version="1.0" encoding="iso-8859-1"?>
<!-- Generator: Adobe Illustrator 19.0.0, SVG Export Plug-In . SVG Version: 6.00 Build 0)  -->
<svg version="1.1" id="Capa_1" xmlns="http://www.w3.org/2000/svg" xmlns:xlink="http://www.w3.org/1999/xlink" x="0px" y="0px"
	 viewBox="0 0 512 512" style="enable-background:new 0 0 512 512;" xml:space="preserve">
<path style="fill:#F6DC84;" d="M434.524,310.556H393.23c0-75.784-61.445-137.229-137.229-137.229s-137.229,61.445-137.229,137.229
	H77.477c0-98.596,79.928-178.523,178.523-178.523S434.524,211.96,434.524,310.556z"/>
<path style="fill:#E2C8BA;" d="M502,377.728H256v-25.672c0-22.92,18.581-41.501,41.501-41.501H502V377.728z"/>
<path style="fill:#FFF2E9;" d="M10,377.728h246v-25.672c0-22.92-18.581-41.501-41.501-41.501H10V377.728z"/>
<path style="fill:#BA7052;" d="M256,377.728v83.561h40.244c19.632,0,35.548-15.915,35.548-35.548l0,0H502v-48.013H256z"/>
<path style="fill:#A15443;" d="M10,377.728v48.013h170.208l0,0c0,19.633,15.915,35.548,35.548,35.548H256v-83.561H10z"/>
<path style="fill:#56BFA1;" d="M393.23,310.556h-41.294c0-52.983-42.952-95.935-95.935-95.935s-95.935,42.951-95.935,95.935h-41.294
	c0-75.784,61.445-137.229,137.229-137.229C331.784,173.326,393.23,234.771,393.23,310.556z"/>
<path style="fill:#FFA65C;" d="M475.818,310.556h-41.294c0-98.596-79.928-178.523-178.523-178.523S77.477,211.96,77.477,310.556
	H36.182C36.182,189.16,134.604,90.739,256,90.739S475.818,189.16,475.818,310.556z"/>
<path d="M502,300.556h-16.394c-2.451-57.631-26.059-111.461-67.103-152.504c-43.408-43.408-101.12-67.314-162.504-67.314
	s-119.095,23.906-162.503,67.314c-41.043,41.043-64.651,94.873-67.102,152.504H10c-5.523,0-10,4.477-10,10v115.186
	c0,5.523,4.477,10,10,10h161.314c4.569,20.322,22.761,35.548,44.441,35.548h80.488c21.681,0,39.872-15.226,44.441-35.548H502
	c5.522,0,10-4.477,10-10V310.556C512,305.033,507.522,300.556,502,300.556z M492,367.729H266v-15.672
	c0-17.37,14.131-31.501,31.501-31.501H492V367.729z M214.499,300.556h-43.855c4.97-42.691,41.354-75.935,85.357-75.935
	s80.387,33.244,85.356,75.935h-43.856c-17.008,0-32.117,8.288-41.501,21.037C246.616,308.843,231.507,300.556,214.499,300.556z
	 M87.771,300.556c5.191-88.287,78.663-158.523,168.23-158.523s163.037,70.236,168.228,158.523h-21.337
	C397.734,224.02,333.822,163.327,256,163.327S114.265,224.02,109.107,300.556H87.771z M256.001,183.326
	c66.788,0,121.723,51.732,126.84,117.229h-21.373c-5.056-53.74-50.427-95.935-105.467-95.935s-100.412,42.195-105.468,95.935H129.16
	C134.277,235.059,189.212,183.326,256.001,183.326z M255.999,100.738c112.341,0,204.344,88.752,209.584,199.818h-21.321
	c-5.22-99.319-87.665-178.523-188.261-178.523S72.959,201.238,67.739,300.556H46.417C51.657,189.49,143.659,100.738,255.999,100.738
	z M20,320.556h194.499c17.37,0,31.501,14.131,31.501,31.501v15.672H20V320.556z M190.209,425.741c0-5.523-4.478-10-10-10H20v-28.012
	h226v63.56h-30.244C201.669,451.289,190.209,439.828,190.209,425.741z M492,415.741H331.791c-5.522,0-10,4.477-10,10
	c0,14.087-11.46,25.548-25.547,25.548H266v-63.56h226V415.741z"/>
<path d="M20.386,210.649c-1.417,0-2.857-0.303-4.226-0.942c-5.003-2.338-7.164-8.289-4.826-13.293
	c13.273-28.409,31.395-54.203,53.858-76.667c50.967-50.968,118.731-79.038,190.807-79.038c72.077,0,139.841,28.07,190.809,79.039
	c11.5,11.499,21.989,24.036,31.178,37.263c3.15,4.536,2.028,10.767-2.508,13.918c-4.536,3.15-10.767,2.028-13.918-2.508
	c-8.512-12.252-18.233-23.87-28.895-34.531c-47.19-47.192-109.932-73.181-176.666-73.181s-129.475,25.989-176.665,73.18
	c-20.813,20.813-37.596,44.697-49.882,70.991C27.754,208.516,24.149,210.649,20.386,210.649z"/>
<path d="M488.27,203.85c-0.66,0-1.31-0.07-1.96-0.2c-0.64-0.13-1.27-0.32-1.87-0.57s-1.18-0.56-1.72-0.92
	c-0.55-0.36-1.06-0.78-1.52-1.24c-0.471-0.46-0.881-0.97-1.25-1.52c-0.36-0.54-0.67-1.12-0.92-1.73c-0.25-0.6-0.44-1.23-0.57-1.87
	s-0.19-1.3-0.19-1.95s0.061-1.31,0.19-1.96c0.13-0.63,0.32-1.26,0.57-1.87c0.25-0.6,0.56-1.18,0.92-1.72
	c0.369-0.55,0.779-1.06,1.25-1.52c0.46-0.46,0.97-0.88,1.52-1.25c0.54-0.36,1.12-0.67,1.72-0.92c0.6-0.24,1.23-0.44,1.87-0.57
	c1.29-0.25,2.62-0.25,3.91,0c0.64,0.13,1.271,0.33,1.87,0.57c0.6,0.25,1.18,0.56,1.729,0.92c0.54,0.37,1.061,0.79,1.521,1.25
	s0.88,0.97,1.24,1.52c0.359,0.54,0.67,1.12,0.92,1.72c0.25,0.61,0.44,1.24,0.569,1.87c0.131,0.65,0.19,1.31,0.19,1.96
	c0,0.65-0.06,1.31-0.19,1.95s-0.319,1.27-0.569,1.87c-0.25,0.61-0.56,1.19-0.92,1.73c-0.36,0.55-0.78,1.06-1.24,1.52
	s-0.98,0.88-1.521,1.24c-0.55,0.36-1.13,0.67-1.729,0.92c-0.6,0.25-1.23,0.44-1.87,0.57
	C489.569,203.779,488.92,203.85,488.27,203.85z"/>
<g>
</g>
<g>
</g>
<g>
</g>
<g>
</g>
<g>
</g>
<g>
</g>
<g>
</g>
<g>
</g>
<g>
</g>
<g>
</g>
<g>
</g>
<g>
</g>
<g>
</g>
<g>
</g>
<g>
</g>
</svg>
